<svg width="22" height="18" viewBox="0 0 22 18" fill="none" xmlns="http://www.w3.org/2000/svg">
<path d="M19.2429 0H2.35705C1.06535 0 0 1.07946 0 2.38833V12.063C0 13.3718 1.06535 14.4513 2.35705 14.4513H8.98888C8.98888 14.4513 10.2673 18 10.7334 18C11.1995 18 12.5845 14.4513 12.5845 14.4513H19.2429C20.5346 14.4513 21.6 13.3718 21.6 12.063V2.38833C21.6 1.07946 20.5346 0 19.2429 0ZM6.27223 8.9325C5.93932 9.31032 5.41993 9.47223 4.86067 9.47223C4.3546 9.47223 3.98173 9.32382 3.71542 9.10791H3.7021V9.37782H2.43697V3.77811H3.7021V5.92353H3.72874C4.07497 5.62671 4.52776 5.53221 5.06038 5.50521C5.51317 5.49171 5.9926 5.77512 6.28555 6.11244C6.56518 6.44976 6.7783 6.97599 6.7783 7.55622C6.7783 8.19045 6.61846 8.55468 6.27223 8.9325ZM9.0022 9.43182H7.71043C7.71043 9.43182 7.71043 6.49026 7.71043 5.96403C7.71043 5.16789 7.08457 5.05998 7.08457 5.05998V3.6702C7.08457 3.6702 8.89564 3.77811 9.0022 6.00453C9.0022 6.63867 9.0022 9.43182 9.0022 9.43182ZM14.076 8.36586C13.9694 8.62218 13.8096 8.83809 13.5965 9.0405C13.3968 9.22941 13.1571 9.37782 12.8907 9.48573C12.6244 9.59373 12.3447 9.64764 12.0518 9.64764C11.7588 9.64764 11.4792 9.59373 11.2261 9.48573C10.9598 9.37782 10.7201 9.22941 10.5203 9.0405C10.3073 8.83809 10.1475 8.60868 10.0409 8.36586C9.93442 8.12295 9.88114 7.85304 9.88114 7.56972C9.88114 7.2864 9.93442 7.02999 10.0409 6.77358C10.1475 6.53076 10.3073 6.30135 10.5203 6.09894C10.7334 5.91003 10.9598 5.76162 11.2261 5.65371C11.4925 5.54571 11.7721 5.49171 12.0518 5.49171C12.3447 5.49171 12.6244 5.54571 12.8907 5.65371C13.1571 5.76162 13.3968 5.91003 13.5965 6.09894C13.8096 6.30135 13.9561 6.51726 14.076 6.77358C14.1825 7.02999 14.2358 7.2864 14.2358 7.56972C14.2358 7.85304 14.1825 8.10945 14.076 8.36586ZM19.163 8.919C19.163 9.90405 18.9765 10.4978 18.5504 10.916C18.0311 11.4153 17.2987 11.4422 16.686 11.3613V10.3494C17.2054 10.4033 17.9112 10.0525 17.9112 9.37782V9.12141H17.8979C17.6049 9.52623 17.1921 9.67464 16.6194 9.67464C16.1001 9.67464 15.6474 9.48573 15.3411 9.12141C15.0347 8.75709 14.8883 8.27136 14.8883 7.66413C14.8883 6.97599 15.0614 6.43626 15.3944 6.03144C15.7406 5.62671 16.2199 5.4378 16.7793 5.4378C17.272 5.4378 17.5916 5.55921 17.8979 5.84262H17.9112V5.53221H19.1763V8.919H19.163Z" fill="black"/>
</svg>
