<svg width="22" height="16" viewBox="0 0 22 16" fill="none" xmlns="http://www.w3.org/2000/svg">
<path fill-rule="evenodd" clip-rule="evenodd" d="M19.5978 0.46575C20.5447 0.71802 21.2898 1.467 21.5421 2.42163C22 4.14855 21.9961 7.7499 21.9961 7.7499C21.9961 7.7499 21.9961 11.3513 21.5382 13.0782C21.2859 14.0289 20.5408 14.7779 19.5939 15.034C17.8786 15.4959 10.998 15.4959 10.998 15.4959C10.998 15.4959 4.11745 15.4959 2.40223 15.034C1.45528 14.7819 0.710172 14.0329 0.457929 13.0782C5.36442e-08 11.3513 0 7.7499 0 7.7499C0 7.7499 -2.68221e-07 4.14855 0.461808 2.41776C0.71406 1.467 1.45916 0.71802 2.4061 0.46188C4.12132 -1.60933e-07 11.0019 0 11.0019 0C11.0019 0 17.8786 -5.36442e-08 19.5978 0.46575ZM14.5016 7.75746L8.75037 4.48596V11.029L14.5016 7.75746Z" fill="white"/>
</svg>
