<svg width="19" height="19" viewBox="0 0 19 19" fill="none" xmlns="http://www.w3.org/2000/svg">
<path d="M9.49648 6.34229C7.78477 6.34229 6.32983 7.79722 6.32983 9.50893C6.32983 11.2206 7.78477 12.6756 9.49648 12.6756C11.2082 12.6756 12.6632 11.2206 12.6632 9.50893C12.6632 7.79722 11.2082 6.34229 9.49648 6.34229Z" fill="white"/>
<path d="M13.5591 0H5.52725C2.4182 0 0 2.41821 0 5.44095V13.4727C0 16.5818 2.4182 19 5.52725 19H13.5591C16.5819 19 19 16.5818 19 13.4727V5.44095C19 2.41821 16.5819 0 13.5591 0ZM9.50003 14.5091C6.7364 14.5091 4.5773 12.2637 4.5773 9.58635C4.5773 6.90912 6.7364 4.57731 9.50003 4.57731C12.2637 4.57731 14.4228 6.82272 14.4228 9.50004C14.4228 12.1773 12.2637 14.5091 9.50003 14.5091ZM14.5955 5.61366C13.9909 5.61366 13.4727 5.09544 13.4727 4.49091C13.4727 3.88638 13.9909 3.36816 14.5955 3.36816C15.2 3.36816 15.7182 3.88638 15.7182 4.49091C15.7182 5.09544 15.2 5.61366 14.5955 5.61366Z" fill="white"/>
</svg>
